<svg width="2500" height="532" viewBox="0 0 2500 532" fill="none" xmlns="http://www.w3.org/2000/svg">
<g clip-path="url(#clip0_33_123)">
<mask id="mask0_33_123" style="mask-type:alpha" maskUnits="userSpaceOnUse" x="-3" y="0" width="2501" height="532">
<path d="M-2.68701 0.40918H2497.35V531.811H-2.68701" fill="white"/>
</mask>
<g mask="url(#mask0_33_123)">
<path fill-rule="evenodd" clip-rule="evenodd" d="M726.751 143.124C726.115 141.114 724.856 139.36 723.155 138.114C721.455 136.869 719.402 136.198 717.295 136.198H624.764C622.657 136.198 620.604 136.869 618.903 138.114C617.203 139.36 615.944 141.114 615.308 143.124L498.564 513.377C497.619 516.392 498.155 519.673 500.024 522.229C500.946 523.483 502.15 524.503 503.539 525.207C504.928 525.91 506.463 526.277 508.02 526.277H571.725C576.119 526.277 579.991 523.381 581.232 519.163L661.63 246.867C661.63 246.867 663.733 240.067 671.011 240.067C678.414 240.067 680.215 247.141 680.215 247.15L717.518 376.259H667.412C665.25 376.258 663.147 376.964 661.423 378.269C659.699 379.575 658.449 381.408 657.865 383.49L643.485 434.612C643.068 436.087 642.998 437.637 643.282 439.143C643.565 440.648 644.194 442.068 645.119 443.289C646.045 444.51 647.24 445.5 648.613 446.18C649.986 446.861 651.498 447.213 653.03 447.21H738.37L760.837 519.311C761.466 521.329 762.724 523.093 764.427 524.346C766.13 525.599 768.188 526.274 770.303 526.274H834.032C835.59 526.272 837.125 525.904 838.514 525.2C839.902 524.495 841.106 523.474 842.027 522.218C842.948 520.962 843.56 519.507 843.815 517.97C844.069 516.434 843.959 514.859 843.492 513.374L726.751 143.124ZM1004.3 469.218C1004.09 467.852 1003.6 466.546 1002.86 465.381C1002.12 464.215 1001.15 463.217 999.997 462.45C998.85 461.681 997.553 461.162 996.193 460.925C994.832 460.688 993.436 460.739 992.096 461.074C981.755 463.639 971.849 465.059 964.206 465.059C949.706 465.059 943.247 458.773 943.247 444.68V302.824H1000.13C1002.76 302.824 1005.28 301.779 1007.14 299.92C1009 298.06 1010.05 295.539 1010.05 292.908V248.661C1010.05 243.184 1005.61 238.751 1000.14 238.751H943.247V170.441C943.247 169.023 942.944 167.622 942.356 166.331C941.769 165.04 940.911 163.891 939.841 162.96C938.772 162.029 937.515 161.338 936.155 160.934C934.796 160.531 933.366 160.424 931.961 160.62L873.391 168.779C871.02 169.109 868.849 170.285 867.277 172.09C865.705 173.895 864.839 176.207 864.838 178.601V238.748H832.934C830.305 238.748 827.784 239.792 825.924 241.65C824.065 243.509 823.019 246.029 823.018 248.658V292.905C823.018 295.535 824.062 298.057 825.922 299.917C827.782 301.777 830.304 302.821 832.934 302.821H864.838V453.843C864.838 505.708 892.099 531.997 945.866 531.997C961.165 531.997 987.148 528.471 1004.14 522.566C1006.32 521.809 1008.17 520.312 1009.37 518.334C1010.57 516.356 1011.03 514.022 1010.69 511.737L1004.3 469.214L1004.3 469.218ZM1112.73 128.971H1054.16C1052.86 128.971 1051.57 129.227 1050.36 129.726C1049.16 130.225 1048.07 130.956 1047.15 131.877C1046.23 132.799 1045.5 133.892 1045 135.096C1044.5 136.3 1044.24 137.59 1044.24 138.893V516.361C1044.24 518.991 1045.29 521.513 1047.15 523.373C1049.01 525.232 1051.53 526.277 1054.16 526.277H1112.73C1115.36 526.277 1117.88 525.232 1119.74 523.373C1121.6 521.513 1122.65 518.991 1122.65 516.361V138.887C1122.65 133.403 1118.21 128.971 1112.73 128.971ZM1302.63 420.856V455.345C1292.92 460.517 1275.33 467.927 1254.17 467.927C1235.92 467.927 1230.35 462.361 1230.35 444.097C1230.35 426.368 1233.79 420.853 1255.32 420.853H1302.63V420.856ZM1263.34 233.019C1233.68 233.019 1197.6 237.694 1171.41 244.937C1169.05 245.584 1167.02 247.078 1165.7 249.132C1164.39 251.186 1163.87 253.656 1164.26 256.065L1171.12 298.584C1171.33 299.896 1171.8 301.151 1172.51 302.276C1173.21 303.401 1174.14 304.372 1175.23 305.132C1177.43 306.674 1180.16 307.254 1182.8 306.731C1207.16 301.997 1232.3 299.384 1253.6 299.384C1295.87 299.384 1302.63 308.308 1302.63 336.954V361.933H1239.85C1179.84 361.933 1154.24 386.682 1154.24 444.683C1154.24 500.174 1182.31 532 1231.25 532C1259.56 532 1287.92 524.143 1311.75 509.776L1314.25 518.968C1314.82 521.067 1316.07 522.92 1317.8 524.241C1319.53 525.561 1321.64 526.277 1323.82 526.277H1371.12C1373.75 526.277 1376.27 525.232 1378.13 523.373C1379.99 521.513 1381.04 518.991 1381.04 516.361V338.106C1381.04 261.498 1349.13 233.019 1263.33 233.019H1263.34ZM1527.8 348.318C1491.46 338.95 1491.46 338.572 1491.46 318.633C1491.46 305.242 1492.79 298.811 1522.73 298.811C1543.24 298.811 1573.51 302.399 1592.94 305.724C1595.62 306.18 1598.36 305.525 1600.53 303.898C1601.61 303.099 1602.51 302.09 1603.18 300.932C1603.86 299.774 1604.29 298.491 1604.46 297.161L1609.98 252.524C1610.28 250.092 1609.67 247.636 1608.27 245.627C1606.87 243.617 1604.77 242.198 1602.39 241.641C1579.91 236.403 1548.64 233.016 1522.73 233.016C1432.66 233.016 1414.2 267.014 1414.2 318.048C1414.2 374.166 1424.62 393.025 1493.66 409.841C1539.1 420.78 1539.1 428.908 1539.1 442.385C1539.1 460.082 1537.59 466.205 1507.84 466.205C1483.88 466.205 1456.16 462.478 1431.77 455.974C1430.44 455.622 1429.06 455.547 1427.71 455.754C1426.36 455.962 1425.06 456.447 1423.91 457.18C1422.75 457.913 1421.76 458.877 1420.99 460.012C1420.23 461.147 1419.7 462.428 1419.46 463.775L1411.72 506.13C1411.28 508.494 1411.72 510.934 1412.95 512.998C1414.19 515.061 1416.12 516.606 1418.41 517.346C1445.01 525.978 1483.2 531.997 1511.27 531.997C1598.49 531.997 1616.36 495.487 1616.36 440.663C1616.36 380.128 1605.61 368.909 1527.8 348.315L1527.8 348.318ZM1754.12 348.318C1717.78 338.95 1717.78 338.572 1717.78 318.633C1717.78 305.242 1719.1 298.811 1749.05 298.811C1769.56 298.811 1799.82 302.399 1819.26 305.724C1821.94 306.18 1824.68 305.525 1826.85 303.898C1827.92 303.099 1828.83 302.09 1829.5 300.932C1830.18 299.774 1830.61 298.491 1830.77 297.161L1836.3 252.524C1836.6 250.093 1835.99 247.636 1834.59 245.627C1833.19 243.618 1831.09 242.198 1828.71 241.641C1806.23 236.403 1774.96 233.016 1749.05 233.016C1658.98 233.016 1640.52 267.014 1640.52 318.048C1640.52 374.166 1650.94 393.025 1719.98 409.841C1765.42 420.78 1765.42 428.908 1765.42 442.385C1765.42 460.082 1763.91 466.205 1734.15 466.205C1710.2 466.205 1682.47 462.478 1658.08 455.974C1656.76 455.622 1655.38 455.548 1654.03 455.756C1652.68 455.964 1651.38 456.45 1650.22 457.183C1649.07 457.914 1648.07 458.877 1647.31 460.012C1646.54 461.146 1646.02 462.428 1645.77 463.775L1638.03 506.13C1637.59 508.494 1638.03 510.935 1639.27 512.998C1640.5 515.062 1642.44 516.607 1644.72 517.346C1671.32 525.978 1709.51 531.997 1737.59 531.997C1824.8 531.997 1842.68 495.487 1842.68 440.663C1842.68 380.128 1831.92 368.909 1754.12 348.315L1754.12 348.318ZM1946.81 238.751H1888.24C1885.61 238.751 1883.09 239.795 1881.23 241.654C1879.37 243.512 1878.33 246.032 1878.33 248.661V516.361C1878.33 518.991 1879.37 521.513 1881.23 523.373C1883.09 525.232 1885.61 526.277 1888.24 526.277H1946.81C1949.44 526.277 1951.96 525.232 1953.82 523.373C1955.68 521.513 1956.73 518.991 1956.73 516.361V248.655C1956.73 243.177 1952.29 238.745 1946.81 238.745V238.751ZM2138.19 420.856V455.345C2128.48 460.517 2110.89 467.927 2089.73 467.927C2071.47 467.927 2065.91 462.361 2065.91 444.097C2065.91 426.368 2069.35 420.853 2090.87 420.853H2138.19V420.856ZM2098.89 233.019C2069.24 233.019 2033.15 237.694 2006.96 244.937C2004.61 245.584 2002.58 247.078 2001.26 249.132C1999.94 251.186 1999.43 253.656 1999.82 256.065L2006.67 298.584C2007.1 301.235 2008.59 303.596 2010.79 305.132C2012.99 306.674 2015.71 307.254 2018.36 306.731C2042.71 301.997 2067.86 299.384 2089.16 299.384C2131.43 299.384 2138.19 308.308 2138.19 336.954V361.933H2075.41C2015.41 361.933 1989.8 386.682 1989.8 444.683C1989.8 500.174 2017.87 532 2066.81 532C2095.12 532 2123.47 524.143 2147.3 509.776L2149.81 518.968C2150.38 521.067 2151.63 522.92 2153.36 524.241C2155.08 525.561 2157.2 526.277 2159.38 526.277H2206.68C2209.31 526.277 2211.83 525.232 2213.69 523.373C2215.55 521.513 2216.59 518.991 2216.59 516.361V338.106C2216.59 261.498 2184.69 233.019 2098.89 233.019V233.019ZM2433.22 233.019C2402.17 233.019 2359.89 243.722 2324.17 260.488L2319.9 245.872C2319.29 243.816 2318.04 242.01 2316.32 240.726C2314.61 239.442 2312.52 238.748 2310.38 238.748H2267C2264.37 238.748 2261.85 239.792 2259.99 241.65C2258.13 243.509 2257.09 246.029 2257.09 248.658V516.358C2257.09 518.988 2258.13 521.51 2259.99 523.37C2261.85 525.229 2264.37 526.274 2267 526.274H2325.57C2328.2 526.274 2330.72 525.229 2332.58 523.37C2334.44 521.51 2335.49 518.988 2335.49 516.358V330.957C2356.58 320.223 2386.25 309.127 2404 309.127C2417.19 309.127 2422.1 314.031 2422.1 327.218V516.358C2422.1 517.661 2422.35 518.951 2422.85 520.154C2423.35 521.358 2424.08 522.452 2425 523.374C2425.92 524.295 2427.01 525.026 2428.22 525.525C2429.42 526.023 2430.71 526.28 2432.01 526.28H2490.58C2493.21 526.28 2495.73 525.235 2497.59 523.376C2499.45 521.516 2500.5 518.994 2500.5 516.364V319.776C2500.5 262.207 2477.87 233.019 2433.23 233.019H2433.22ZM1943.66 128.958H1885.09C1882.46 128.958 1879.94 130.003 1878.08 131.862C1876.22 133.722 1875.18 136.244 1875.18 138.874V190.657C1875.18 193.287 1876.22 195.809 1878.08 197.669C1879.94 199.529 1882.46 200.573 1885.09 200.573H1943.66C1946.29 200.573 1948.82 199.529 1950.68 197.669C1952.54 195.809 1953.58 193.287 1953.58 190.657V138.874C1953.58 136.244 1952.54 133.722 1950.68 131.862C1948.82 130.003 1946.29 128.958 1943.66 128.958" fill="black"/>
</g>
<mask id="mask1_33_123" style="mask-type:alpha" maskUnits="userSpaceOnUse" x="0" y="0" width="2501" height="532">
<path d="M0.460938 0.40918H2500.5V531.811H0.460938" fill="white"/>
</mask>
<g mask="url(#mask1_33_123)">
<path fill-rule="evenodd" clip-rule="evenodd" d="M478.631 130.645C476.756 129.218 474.465 128.444 472.109 128.442C470.818 128.442 469.518 128.681 468.281 129.153C445.09 138.021 421.544 144.754 400.046 149.763C395.664 150.786 392.123 154.044 390.653 157.947C374.992 200.847 335.004 241.692 293.048 284.478C291.364 286.077 289.006 288.187 285.166 288.187C281.335 288.187 278.996 286.14 277.283 284.478C235.334 241.692 195.343 200.995 179.682 158.089C178.212 154.186 174.667 150.927 170.292 149.904C148.785 144.893 125.176 137.952 102.013 129.087C100.787 128.619 99.4853 128.377 98.1726 128.376C95.8351 128.369 93.5614 129.138 91.7068 130.56C90.2689 131.659 89.1328 133.105 88.4045 134.762C87.6763 136.419 87.3796 138.233 87.542 140.036C91.0992 175.708 105.189 210.581 130.628 247.128C154.539 281.485 185.729 313.285 215.883 344.04C271.444 400.709 323.933 454.233 328.538 516.301C328.738 519.003 329.952 521.529 331.937 523.373C333.923 525.216 336.532 526.24 339.241 526.239H404.516C405.971 526.237 407.409 525.94 408.746 525.366C410.082 524.792 411.288 523.953 412.29 522.899C413.293 521.846 414.071 520.6 414.578 519.237C415.086 517.874 415.311 516.422 415.241 514.97C413.186 473.474 397.569 431.918 367.5 387.941C361.148 378.693 354.438 369.695 347.385 360.97C344.52 357.391 345.723 352.949 347.92 350.708C350.082 348.488 352.264 346.275 354.452 344.034C384.609 313.279 415.792 281.478 439.71 247.119C465.146 210.571 479.239 175.903 482.793 140.237C483.149 136.655 481.518 132.849 478.628 130.642L478.631 130.645ZM573.73 5.88658C572.461 4.19101 570.815 2.81362 568.922 1.86306C567.029 0.912508 564.941 0.414793 562.823 0.40918C560.619 0.40918 558.441 0.963215 556.533 2.00518C476.522 45.8023 383.775 68.9711 288.308 68.9931C192.843 68.9648 100.093 45.8023 20.0882 2.00203C18.157 0.958667 15.9969 0.41133 13.8018 0.40918C9.52063 0.40918 5.44721 2.45533 2.89424 5.87398C-0.892717 10.9107 -1.00919 19.3597 5.43462 24.3901C45.5078 54.2639 89.6795 77.5901 136.728 93.5375C185.496 110.083 236.486 118.485 288.289 118.507H288.326C340.132 118.485 391.125 110.083 439.89 93.5375C486.942 77.5838 531.11 54.2639 571.234 24.3523C577.634 19.3534 577.511 10.9044 573.73 5.88343V5.88658ZM215.118 392.314C213.576 390.699 211.309 389.049 207.5 389.049C202.627 389.049 199.734 392.418 198.642 394.086C171.186 435.865 157.004 475.303 155.043 514.929C154.901 517.85 155.978 520.752 158.002 522.893C159.013 523.944 160.225 524.782 161.566 525.355C162.908 525.928 164.35 526.226 165.809 526.23H230.977C236.581 526.23 241.303 521.845 241.718 516.251C243.135 497.155 249.084 478.01 259.907 457.888C263.659 450.931 260.744 444.393 258.585 441.598C247.844 427.63 234.692 412.731 215.121 392.311L215.118 392.314ZM285.229 162.622C305.684 162.622 317.549 161.394 321.72 161.394C326.766 161.394 331.592 165.531 331.592 171.323C331.592 173.016 331.192 174.219 330.795 175.289C328.082 182.542 315.717 208.638 292.699 231.026C290.118 233.535 287.19 234.004 285.175 234.004H285.144C283.139 234.004 280.211 233.532 277.633 231.026C254.609 208.638 242.241 182.542 239.533 175.289C239.134 174.219 238.734 173.016 238.734 171.323C238.734 165.531 243.563 161.394 248.612 161.394C252.783 161.394 264.645 162.622 285.097 162.622H285.229" fill="black"/>
</g>
</g>
<defs>
<clipPath id="clip0_33_123">
<rect width="2500" height="532" fill="white"/>
</clipPath>
</defs>
</svg>
