<svg width="400" height="407" viewBox="0 0 400 407" fill="none" xmlns="http://www.w3.org/2000/svg">
<rect width="400" height="400" rx="70" fill="#6D7CD3"/>
<path d="M0 147.5H9.00047C19.1426 147.5 28.4451 153.134 33.1435 162.122V162.122C35.6431 166.904 36.4787 172.382 35.5185 177.692L34.2615 184.642C31.5021 199.9 45.027 213.119 60.2179 210.012V210.012C79.2154 206.126 97.8036 218.247 101.91 237.198L105.042 251.654C106.666 259.149 109.711 266.262 114.013 272.61L138.07 308.107C155.555 333.906 194.742 329.788 206.482 300.918L208.686 295.497C219.14 269.787 247.269 261.316 269.999 277.243C285.193 287.89 303.313 296.5 334.5 296.5C364.5 296.5 364.5 273 371.5 258L374.934 249.505C378.6 240.436 387.403 234.5 397.185 234.5H400" stroke="white" stroke-width="3"/>
<path d="M0 82H9.00047C19.1426 82 28.4451 87.6341 33.1435 96.6223V96.6223C35.6431 101.404 36.4787 106.882 35.5185 112.192L34.2615 119.142C31.5021 134.4 45.027 147.619 60.2179 144.512V144.512C79.2154 140.626 97.8036 152.747 101.91 171.698L105.042 186.154C106.666 193.649 109.711 200.762 114.013 207.11L138.07 242.607C155.555 268.406 194.742 264.288 206.482 235.418L208.686 229.997C219.14 204.287 247.269 195.816 269.999 211.743C285.193 222.39 303.313 231 334.5 231C364.5 231 364.5 207.5 371.5 192.5L374.934 184.005C378.6 174.936 387.403 169 397.185 169H400" stroke="white" stroke-width="3"/>
<path d="M0 185.5V185.5C13.8096 185.5 24.7473 197.166 23.8583 210.947L23.6513 214.155C23.5507 215.715 23.6027 217.28 23.8066 218.83L25.5252 231.892C27.2275 244.829 38.2547 254.5 51.3031 254.5H56.0436C70.8918 254.5 84.6365 262.34 92.1948 275.12L107.5 301L144.807 356.047C160.774 379.607 195.782 378.683 210.484 354.314L229.357 323.032C242.181 301.775 267.864 296.567 280.151 318.138C290.743 336.734 301.279 352.99 335 341C357.5 333 364.5 311 371.5 296L374.934 287.505C378.6 278.436 387.403 272.5 397.185 272.5H400" stroke="white" stroke-width="3"/>
<path d="M166.2 282.2C157 282.2 149.4 280.133 143.4 276C137.533 271.867 133.133 266.2 130.2 259C127.4 251.8 126 243.6 126 234.4V164.6C126 155.133 127.4 146.867 130.2 139.8C133 132.6 137.333 127 143.2 123C149.2 119 156.867 117 166.2 117C175.533 117 183.133 119 189 123C194.867 127 199.2 132.6 202 139.8C204.8 146.867 206.2 155.133 206.2 164.6V234.4C206.2 243.733 204.733 252 201.8 259.2C199 266.4 194.667 272.067 188.8 276.2C182.933 280.2 175.4 282.2 166.2 282.2ZM166.2 264.6C171.267 264.6 175.067 263.133 177.6 260.2C180.267 257.267 182.067 253.533 183 249C184.067 244.333 184.6 239.533 184.6 234.6V164.4C184.6 159.2 184.133 154.333 183.2 149.8C182.267 145.133 180.467 141.4 177.8 138.6C175.267 135.8 171.4 134.4 166.2 134.4C161 134.4 157.067 135.8 154.4 138.6C151.733 141.4 149.933 145.133 149 149.8C148.067 154.333 147.6 159.2 147.6 164.4V234.6C147.6 239.533 148.067 244.333 149 249C150.067 253.533 151.933 257.267 154.6 260.2C157.4 263.133 161.267 264.6 166.2 264.6Z" fill="white"/>
<path d="M251.92 280.4V146.4C251.787 146.533 250.254 146.933 247.32 147.6C244.52 148.267 241.32 148.933 237.72 149.6C234.12 150.267 230.92 150.867 228.12 151.4C225.32 151.933 223.854 152.2 223.72 152.2V136C225.987 135.467 228.587 134.733 231.52 133.8C234.587 132.867 237.654 131.733 240.72 130.4C243.92 129.067 246.92 127.4 249.72 125.4C252.654 123.4 255.12 121.067 257.12 118.4H273.32V280.4H251.92Z" fill="white"/>
</svg>
