<svg width="400" height="407" viewBox="0 0 400 407" fill="none" xmlns="http://www.w3.org/2000/svg">
<rect width="400" height="400" rx="70" fill="#EC663D"/>
<path d="M0 147.5H9.00047C19.1426 147.5 28.4451 153.134 33.1435 162.122V162.122C35.6431 166.904 36.4787 172.382 35.5185 177.692L34.2615 184.642C31.5021 199.9 45.027 213.119 60.2179 210.012V210.012C79.2154 206.126 97.8036 218.247 101.91 237.198L105.042 251.654C106.666 259.149 109.711 266.262 114.013 272.61L138.07 308.107C155.555 333.906 194.742 329.788 206.482 300.918L208.686 295.497C219.14 269.787 247.269 261.316 269.999 277.243C285.193 287.89 303.313 296.5 334.5 296.5C364.5 296.5 364.5 273 371.5 258L374.934 249.505C378.6 240.436 387.403 234.5 397.185 234.5H400" stroke="white" stroke-width="3"/>
<path d="M0 82H9.00047C19.1426 82 28.4451 87.6341 33.1435 96.6223V96.6223C35.6431 101.404 36.4787 106.882 35.5185 112.192L34.2615 119.142C31.5021 134.4 45.027 147.619 60.2179 144.512V144.512C79.2154 140.626 97.8036 152.747 101.91 171.698L105.042 186.154C106.666 193.649 109.711 200.762 114.013 207.11L138.07 242.607C155.555 268.406 194.742 264.288 206.482 235.418L208.686 229.997C219.14 204.287 247.269 195.816 269.999 211.743C285.193 222.39 303.313 231 334.5 231C364.5 231 364.5 207.5 371.5 192.5L374.934 184.005C378.6 174.936 387.403 169 397.185 169H400" stroke="white" stroke-width="3"/>
<path d="M0 185.5V185.5C13.8096 185.5 24.7473 197.166 23.8583 210.947L23.6513 214.155C23.5507 215.715 23.6027 217.28 23.8066 218.83L25.5252 231.892C27.2275 244.829 38.2547 254.5 51.3031 254.5H56.0436C70.8918 254.5 84.6365 262.34 92.1948 275.12L107.5 301L144.807 356.047C160.774 379.607 195.782 378.683 210.484 354.314L229.357 323.032C242.181 301.775 267.864 296.567 280.151 318.138C290.743 336.734 301.279 352.99 335 341C357.5 333 364.5 311 371.5 296L374.934 287.505C378.6 278.436 387.403 272.5 397.185 272.5H400" stroke="white" stroke-width="3"/>
<path d="M150.2 282.2C141 282.2 133.4 280.133 127.4 276C121.533 271.867 117.133 266.2 114.2 259C111.4 251.8 110 243.6 110 234.4V164.6C110 155.133 111.4 146.867 114.2 139.8C117 132.6 121.333 127 127.2 123C133.2 119 140.867 117 150.2 117C159.533 117 167.133 119 173 123C178.867 127 183.2 132.6 186 139.8C188.8 146.867 190.2 155.133 190.2 164.6V234.4C190.2 243.733 188.733 252 185.8 259.2C183 266.4 178.667 272.067 172.8 276.2C166.933 280.2 159.4 282.2 150.2 282.2ZM150.2 264.6C155.267 264.6 159.067 263.133 161.6 260.2C164.267 257.267 166.067 253.533 167 249C168.067 244.333 168.6 239.533 168.6 234.6V164.4C168.6 159.2 168.133 154.333 167.2 149.8C166.267 145.133 164.467 141.4 161.8 138.6C159.267 135.8 155.4 134.4 150.2 134.4C145 134.4 141.067 135.8 138.4 138.6C135.733 141.4 133.933 145.133 133 149.8C132.067 154.333 131.6 159.2 131.6 164.4V234.6C131.6 239.533 132.067 244.333 133 249C134.067 253.533 135.933 257.267 138.6 260.2C141.4 263.133 145.267 264.6 150.2 264.6Z" fill="white"/>
<path d="M209.92 280.4V265.2L251.12 201C254.187 196.2 256.987 191.733 259.52 187.6C262.187 183.467 264.32 179.133 265.92 174.6C267.654 169.933 268.52 164.6 268.52 158.6C268.52 151.133 267.32 145.267 264.92 141C262.52 136.733 258.32 134.6 252.32 134.6C247.254 134.6 243.32 136 240.52 138.8C237.72 141.6 235.787 145.267 234.72 149.8C233.654 154.333 233.12 159.2 233.12 164.4V169.8H211.72V164.2C211.72 154.467 212.987 146.133 215.52 139.2C218.187 132.133 222.387 126.667 228.12 122.8C233.987 118.933 241.72 117 251.32 117C264.387 117 274.12 120.733 280.52 128.2C286.92 135.533 290.12 145.733 290.12 158.8C290.12 165.733 289.254 171.8 287.52 177C285.92 182.2 283.787 187.067 281.12 191.6C278.454 196.133 275.52 200.8 272.32 205.6L235.12 262.4H286.32V280.4H209.92Z" fill="white"/>
</svg>
