<svg width="400" height="407" viewBox="0 0 400 407" fill="none" xmlns="http://www.w3.org/2000/svg">
<rect width="400" height="400" rx="70" fill="#F7C155"/>
<path d="M0 147.5H9.00047C19.1426 147.5 28.4451 153.134 33.1435 162.122V162.122C35.6431 166.904 36.4787 172.382 35.5185 177.692L34.2615 184.642C31.5021 199.9 45.027 213.119 60.2179 210.012V210.012C79.2154 206.126 97.8036 218.247 101.91 237.198L105.042 251.654C106.666 259.149 109.711 266.262 114.013 272.61L138.07 308.107C155.555 333.906 194.742 329.788 206.482 300.918L208.686 295.497C219.14 269.787 247.269 261.316 269.999 277.243C285.193 287.89 303.313 296.5 334.5 296.5C364.5 296.5 364.5 273 371.5 258L374.934 249.505C378.6 240.436 387.403 234.5 397.185 234.5H400" stroke="white" stroke-width="3"/>
<path d="M0 82H9.00047C19.1426 82 28.4451 87.6341 33.1435 96.6223V96.6223C35.6431 101.404 36.4787 106.882 35.5185 112.192L34.2615 119.142C31.5021 134.4 45.027 147.619 60.2179 144.512V144.512C79.2154 140.626 97.8036 152.747 101.91 171.698L105.042 186.154C106.666 193.649 109.711 200.762 114.013 207.11L138.07 242.607C155.555 268.406 194.742 264.288 206.482 235.418L208.686 229.997C219.14 204.287 247.269 195.816 269.999 211.743C285.193 222.39 303.313 231 334.5 231C364.5 231 364.5 207.5 371.5 192.5L374.934 184.005C378.6 174.936 387.403 169 397.185 169H400" stroke="white" stroke-width="3"/>
<path d="M0 185.5V185.5C13.8096 185.5 24.7473 197.166 23.8583 210.947L23.6513 214.155C23.5507 215.715 23.6027 217.28 23.8066 218.83L25.5252 231.892C27.2275 244.829 38.2547 254.5 51.3031 254.5H56.0436C70.8918 254.5 84.6365 262.34 92.1948 275.12L107.5 301L144.807 356.047C160.774 379.607 195.782 378.683 210.484 354.314L229.357 323.032C242.181 301.775 267.864 296.567 280.151 318.138C290.743 336.734 301.279 352.99 335 341C357.5 333 364.5 311 371.5 296L374.934 287.505C378.6 278.436 387.403 272.5 397.185 272.5H400" stroke="white" stroke-width="3"/>
<path d="M151.8 284.8C142.6 284.8 135 282.733 129 278.6C123.133 274.467 118.733 268.8 115.8 261.6C113 254.4 111.6 246.2 111.6 237V167.2C111.6 157.733 113 149.467 115.8 142.4C118.6 135.2 122.933 129.6 128.8 125.6C134.8 121.6 142.467 119.6 151.8 119.6C161.133 119.6 168.733 121.6 174.6 125.6C180.467 129.6 184.8 135.2 187.6 142.4C190.4 149.467 191.8 157.733 191.8 167.2V237C191.8 246.333 190.333 254.6 187.4 261.8C184.6 269 180.267 274.667 174.4 278.8C168.533 282.8 161 284.8 151.8 284.8ZM151.8 267.2C156.867 267.2 160.667 265.733 163.2 262.8C165.867 259.867 167.667 256.133 168.6 251.6C169.667 246.933 170.2 242.133 170.2 237.2V167C170.2 161.8 169.733 156.933 168.8 152.4C167.867 147.733 166.067 144 163.4 141.2C160.867 138.4 157 137 151.8 137C146.6 137 142.667 138.4 140 141.2C137.333 144 135.533 147.733 134.6 152.4C133.667 156.933 133.2 161.8 133.2 167V237.2C133.2 242.133 133.667 246.933 134.6 251.6C135.667 256.133 137.533 259.867 140.2 262.8C143 265.733 146.867 267.2 151.8 267.2Z" fill="white"/>
<path d="M250.92 284.8C242.12 284.8 234.787 283.133 228.92 279.8C223.054 276.467 218.654 271.667 215.72 265.4C212.787 259.133 211.32 251.733 211.32 243.2V237.8H232.52C232.52 238.333 232.52 238.933 232.52 239.6C232.52 240.133 232.52 240.733 232.52 241.4C232.654 246.2 233.187 250.533 234.12 254.4C235.187 258.267 236.987 261.333 239.52 263.6C242.187 265.867 245.987 267 250.92 267C256.12 267 260.054 265.8 262.72 263.4C265.387 260.867 267.187 257.333 268.12 252.8C269.054 248.267 269.52 243.067 269.52 237.2C269.52 228.667 267.92 221.733 264.72 216.4C261.654 210.933 256.187 207.933 248.32 207.4C247.92 207.267 247.387 207.2 246.72 207.2C246.187 207.2 245.72 207.2 245.32 207.2V185.8C245.72 185.8 246.187 185.8 246.72 185.8C247.254 185.8 247.72 185.8 248.12 185.8C255.72 185.533 261.187 183.533 264.52 179.8C267.854 176.067 269.52 169.867 269.52 161.2C269.52 153.867 268.254 148 265.72 143.6C263.32 139.2 258.454 137 251.12 137C243.787 137 238.92 139.467 236.52 144.4C234.12 149.2 232.787 155.4 232.52 163C232.52 163.533 232.52 164.133 232.52 164.8C232.52 165.333 232.52 165.867 232.52 166.4H211.32V161C211.32 152.333 212.787 144.933 215.72 138.8C218.654 132.667 223.054 127.933 228.92 124.6C234.92 121.267 242.32 119.6 251.12 119.6C260.054 119.6 267.454 121.267 273.32 124.6C279.187 127.933 283.587 132.733 286.52 139C289.454 145.133 290.92 152.533 290.92 161.2C290.92 170.933 288.787 178.733 284.52 184.6C280.387 190.467 274.787 194.467 267.72 196.6C272.654 198.067 276.787 200.6 280.12 204.2C283.587 207.8 286.254 212.4 288.12 218C289.987 223.467 290.92 229.867 290.92 237.2C290.92 246.8 289.587 255.2 286.92 262.4C284.254 269.467 279.987 275 274.12 279C268.254 282.867 260.52 284.8 250.92 284.8Z" fill="white"/>
</svg>
