<svg width="2500" height="492" viewBox="0 0 2500 492" fill="none" xmlns="http://www.w3.org/2000/svg">
<g clip-path="url(#clip0_33_150)">
<path d="M290.487 92.453L145.561 184.906L290.487 277.359L145.561 369.812L0.634766 276.859L145.561 184.406L0.634766 92.453L145.561 0L290.487 92.453ZM144.812 399.547L289.738 307.094L434.664 399.547L289.738 492L144.812 399.547ZM290.487 276.859L435.414 184.406L290.487 92.453L434.664 0L579.591 92.453L434.664 184.906L579.591 277.359L434.664 369.812L290.487 276.859Z" fill="black"/>
<path d="M693.283 92.4529H810.473C885.185 92.4529 946.904 135.681 946.904 234.381V255.12C946.904 354.57 889.183 399.297 812.722 399.297H693.283V92.4529ZM758.749 148.175V343.325H808.974C851.452 343.325 879.938 315.59 879.938 253.871V237.629C879.938 175.91 849.953 148.175 806.725 148.175H758.749ZM981.636 151.173H1034.11L1042.61 208.894C1052.6 169.664 1078.09 148.674 1124.31 148.674H1140.56V214.891H1113.57C1060.35 214.891 1047.35 233.381 1047.35 285.855V400.047H982.636V151.173H981.636ZM1153.55 280.607V273.611C1153.55 190.403 1206.77 144.926 1279.23 144.926C1353.2 144.926 1404.92 190.403 1404.92 273.611V280.607C1404.92 362.316 1354.7 406.293 1279.23 406.293C1199.03 405.544 1153.55 362.566 1153.55 280.607ZM1338.7 279.858V273.611C1338.7 227.384 1315.47 199.648 1278.49 199.648C1242.25 199.648 1218.27 225.135 1218.27 273.611V279.858C1218.27 324.585 1241.5 350.072 1278.49 350.072C1315.47 349.322 1338.7 324.585 1338.7 279.858ZM1438.9 151.173H1492.88L1499.12 198.149C1512.12 166.665 1539.85 144.926 1580.83 144.926C1644.05 144.926 1685.78 190.403 1685.78 274.61V281.607C1685.78 363.315 1639.55 406.543 1580.83 406.543C1541.6 406.543 1514.62 388.802 1501.37 360.317V486.003H1438.15L1438.9 151.173ZM1620.06 279.858V274.36C1620.06 224.886 1594.57 200.398 1560.59 200.398C1524.36 200.398 1500.37 228.134 1500.37 274.36V279.108C1500.37 323.086 1523.61 350.822 1559.84 350.822C1597.07 350.072 1620.06 326.334 1620.06 279.858V279.858ZM1781.48 354.07L1775.98 399.547H1720.51V67.9653H1783.73V195.151C1797.72 162.667 1825.46 144.926 1864.69 144.926C1924.16 145.676 1968.14 186.655 1968.14 269.113V276.859C1968.14 359.317 1926.41 406.543 1863.19 406.543C1821.46 405.544 1794.47 386.304 1781.48 354.07V354.07ZM1901.67 276.859V270.612C1901.67 225.135 1876.93 199.648 1842.2 199.648C1806.72 199.648 1781.98 228.134 1781.98 271.362V276.859C1781.98 323.086 1805.97 350.072 1841.45 350.072C1879.43 350.072 1901.67 326.334 1901.67 276.859V276.859ZM1995.87 280.607V273.611C1995.87 190.403 2049.09 144.926 2121.56 144.926C2195.52 144.926 2247.24 190.403 2247.24 273.611V280.607C2247.24 362.316 2196.27 406.293 2121.56 406.293C2041.35 405.544 1995.87 362.566 1995.87 280.607V280.607ZM2181.53 279.858V273.611C2181.53 227.384 2158.29 199.648 2121.31 199.648C2085.08 199.648 2061.09 225.135 2061.09 273.611V279.858C2061.09 324.585 2084.33 350.072 2121.31 350.072C2158.54 349.322 2181.53 324.585 2181.53 279.858V279.858ZM2331.95 270.612L2244.74 151.173H2319.46L2369.68 225.885L2420.66 151.173H2494.62L2406.16 269.863L2499.37 399.547H2426.15L2369.18 317.089L2313.71 399.547H2237.25L2331.95 270.612Z" fill="black"/>
</g>
<defs>
<clipPath id="clip0_33_150">
<rect width="2500" height="492" fill="white"/>
</clipPath>
</defs>
</svg>
