<svg width="2402" height="687" viewBox="0 0 2402 687" fill="none" xmlns="http://www.w3.org/2000/svg">
<path d="M271.426 24.021C276.23 24.021 278.632 26.4231 283.436 28.8252C254.612 40.8357 225.788 72.063 211.376 139.322L158.532 153.734C175.346 105.692 208.974 24.021 271.426 24.021ZM297.848 48.042C302.652 62.4546 307.456 79.2693 307.456 105.692C307.456 108.094 307.456 108.094 307.456 110.497L237.798 129.713C252.21 79.2693 276.23 57.6504 297.848 48.042ZM360.3 91.2798L329.074 100.888C329.074 98.4861 329.074 96.084 329.074 93.6819C329.074 72.063 326.672 55.2483 321.868 40.8357C338.682 45.6399 353.094 67.2588 360.3 91.2798ZM516.43 129.713C516.43 127.311 514.028 124.909 511.626 124.909C506.822 124.909 456.38 120.105 456.38 120.105C456.38 120.105 420.35 84.0735 415.546 81.6714C410.742 76.8672 403.536 79.2693 401.134 79.2693C401.134 79.2693 393.928 81.6714 381.918 86.4756C369.908 52.8462 348.29 21.6189 312.26 21.6189H309.858C300.25 7.20636 285.838 2.40217 273.828 2.40217C187.356 7.23888e-05 146.522 108.094 132.11 163.343C112.894 168.147 93.678 175.353 72.06 182.559C52.844 187.364 52.844 189.766 50.442 206.58C48.04 218.591 0 598.122 0 598.122L381.918 670.185L588.49 624.545C588.49 624.545 516.43 134.518 516.43 129.713Z" fill="black"/>
<path d="M509.224 124.909C506.822 124.909 456.38 120.105 456.38 120.105C456.38 120.105 420.35 84.0737 415.546 81.6716C413.144 79.2695 413.144 79.2695 410.742 79.2695L381.918 670.186L588.49 624.546C588.49 624.546 516.43 134.518 516.43 129.714C516.43 127.311 511.626 124.909 509.224 124.909Z" fill="black"/>
<path d="M312.26 240.21L285.838 317.077C285.838 317.077 264.22 305.066 235.396 305.066C194.562 305.066 192.16 329.087 192.16 336.294C192.16 369.923 283.436 384.336 283.436 466.007C283.436 530.864 242.602 571.699 187.356 571.699C122.502 571.699 88.874 530.864 88.874 530.864L105.688 473.213C105.688 473.213 139.316 502.038 168.14 502.038C187.356 502.038 194.562 487.626 194.562 475.615C194.562 429.975 120.1 427.573 120.1 353.108C120.1 290.654 165.738 230.601 254.612 230.601C295.446 228.199 312.26 240.21 312.26 240.21Z" fill="#FFFFFE"/>
<path d="M831.092 381.933C809.474 369.923 799.866 360.315 799.866 348.304C799.866 331.489 814.278 321.881 838.298 321.881C864.72 321.881 888.74 333.891 888.74 333.891L907.956 276.241C907.956 276.241 891.142 261.829 840.7 261.829C768.64 261.829 720.6 302.664 720.6 360.315C720.6 393.944 744.62 417.965 773.444 434.78C797.464 449.192 807.072 458.801 807.072 473.213C807.072 487.626 795.062 502.038 771.042 502.038C737.414 502.038 703.786 485.224 703.786 485.224L684.57 542.874C684.57 542.874 713.394 562.091 763.836 562.091C835.896 562.091 888.74 526.059 888.74 461.203C888.74 425.171 862.318 398.748 831.092 381.933ZM1121.73 259.426C1085.7 259.426 1056.88 276.241 1035.26 302.664L1066.49 139.322H984.82L905.554 554.884H987.222L1013.64 413.161C1023.25 360.315 1052.08 326.685 1078.5 326.685C1097.71 326.685 1104.92 338.696 1104.92 357.912C1104.92 369.923 1104.92 381.933 1102.52 393.944L1071.29 557.287H1152.96L1184.19 389.14C1186.59 372.325 1188.99 350.706 1188.99 336.294C1188.99 288.252 1164.97 259.426 1121.73 259.426ZM1330.71 497.234C1301.88 497.234 1292.28 473.213 1292.28 444.388C1292.28 398.748 1316.3 321.881 1359.53 321.881C1388.36 321.881 1397.96 345.902 1397.96 369.923C1397.96 422.769 1373.94 497.234 1330.71 497.234ZM1371.54 259.426C1273.06 259.426 1208.21 348.304 1208.21 446.79C1208.21 509.245 1246.64 559.689 1321.1 559.689C1417.18 559.689 1482.03 473.213 1482.03 372.325C1482.03 314.675 1448.41 259.426 1371.54 259.426ZM1611.74 499.636C1590.12 499.636 1578.11 487.626 1578.11 487.626L1592.53 410.759C1602.13 360.315 1628.56 326.685 1657.38 326.685C1681.4 326.685 1691.01 350.706 1691.01 372.325C1688.61 425.171 1657.38 499.636 1611.74 499.636ZM1691.01 259.426C1635.76 259.426 1604.54 307.468 1604.54 307.468L1609.34 264.231H1537.28C1534.88 293.056 1527.67 338.696 1520.47 372.325L1462.82 670.185H1544.49L1566.1 550.08H1568.51C1568.51 550.08 1585.32 559.689 1616.55 559.689C1712.63 559.689 1775.08 461.203 1775.08 362.717C1775.08 309.87 1751.06 259.426 1691.01 259.426ZM1890.37 144.126C1863.95 144.126 1844.74 165.745 1844.74 192.168C1844.74 216.189 1859.15 233.003 1883.17 233.003C1909.59 233.003 1931.21 216.189 1931.21 184.961C1931.21 160.94 1914.39 144.126 1890.37 144.126ZM1777.48 554.884H1859.15L1914.39 266.633H1832.73L1777.48 554.884ZM2120.97 266.633H2063.32L2065.72 252.22C2070.52 223.395 2087.34 199.374 2113.76 199.374C2128.17 199.374 2140.18 204.178 2140.18 204.178L2157 139.322C2157 139.322 2142.58 132.115 2113.76 132.115C2084.94 132.115 2056.11 139.322 2034.49 158.538C2005.67 182.559 1993.66 216.189 1986.45 249.818L1984.05 264.231H1945.62L1933.61 326.685H1972.04L1928.81 554.884H2010.47L2053.71 326.685H2108.96L2120.97 266.633ZM2315.53 266.633C2315.53 266.633 2265.09 393.944 2241.07 463.605C2238.66 441.986 2221.85 266.633 2221.85 266.633H2135.38L2183.42 530.863C2183.42 535.668 2183.42 540.472 2181.02 545.276C2171.41 564.493 2154.59 581.308 2137.78 593.318C2123.37 605.329 2104.15 612.535 2092.14 617.339L2113.76 687C2130.57 684.598 2164.2 670.185 2193.03 643.762C2229.06 610.133 2265.09 554.884 2298.71 482.822L2397.2 269.035L2315.53 266.633Z" fill="black"/>
</svg>
