<svg width="2500" height="633" viewBox="0 0 2500 633" fill="none" xmlns="http://www.w3.org/2000/svg">
<g clip-path="url(#clip0_33_139)">
<path fill-rule="evenodd" clip-rule="evenodd" d="M799.8 498.1L831 425.6C864.7 450.8 909.6 463.9 953.9 463.9C986.6 463.9 1007.3 451.3 1007.3 432.2C1006.8 378.8 811.4 420.6 809.9 286.7C809.4 218.7 869.8 166.3 955.4 166.3C1006.3 166.3 1057.1 178.9 1093.4 207.6L1064.2 281.6C1031 260.4 989.7 245.3 950.4 245.3C923.7 245.3 906.1 257.9 906.1 274C906.6 326.4 1103.5 297.7 1105.5 425.6C1105.5 495.1 1046.6 544 962 544C900 543.9 843.1 529.3 799.8 498.1V498.1ZM1997.9 399.4C1982.3 426.6 1953.1 445.2 1919.3 445.2C1869.4 445.2 1829.2 404.9 1829.2 355.1C1829.2 305.3 1869.5 265 1919.3 265C1953 265 1982.3 283.6 1997.9 310.8L2084 263C2051.8 205.6 1989.8 166.3 1919.3 166.3C1815 166.3 1730.4 250.9 1730.4 355.2C1730.4 459.5 1815 544.1 1919.3 544.1C1990.3 544.1 2051.8 505.3 2084 447.4L1997.9 399.4ZM1148.8 9.6001H1256.6V536.9H1148.8V9.6001ZM2126.3 9.6001V536.9H2234.1V378.7L2362 536.9H2500L2337.3 349L2487.9 173.7H2355.9L2234 319.2V9.6001H2126.3Z" fill="black"/>
<path d="M1576.9 400.4C1561.3 426.1 1529.1 445.2 1492.8 445.2C1442.9 445.2 1402.7 404.9 1402.7 355.1C1402.7 305.3 1443 265 1492.8 265C1529.1 265 1561.3 285.1 1576.9 311.3V400.4ZM1576.9 173.8V216.6C1559.3 186.9 1515.5 166.2 1469.6 166.2C1374.9 166.2 1300.4 249.8 1300.4 354.6C1300.4 459.4 1374.9 544 1469.6 544C1515.4 544 1559.2 523.4 1576.9 493.6V536.4H1684.7V173.8H1576.9Z" fill="black"/>
<path fill-rule="evenodd" clip-rule="evenodd" d="M133.5 399.9C133.5 436.7 103.8 466.4 67 466.4C30.2 466.4 0.5 436.6 0.5 399.9C0.5 363.2 30.2 333.4 67 333.4H133.5V399.9ZM166.7 399.9C166.7 363.1 196.4 333.4 233.2 333.4C270 333.4 299.7 363.1 299.7 399.9V566.1C299.7 602.9 270 632.6 233.2 632.6C196.4 632.6 166.7 602.9 166.7 566.1V399.9Z" fill="black"/>
<path fill-rule="evenodd" clip-rule="evenodd" d="M233.2 133C196.4 133 166.7 103.3 166.7 66.5C166.7 29.7 196.4 0 233.2 0C270 0 299.7 29.7 299.7 66.5V133H233.2ZM233.2 166.7C270 166.7 299.7 196.4 299.7 233.2C299.7 270 270 299.7 233.2 299.7H66.5C29.7 299.7 0 269.9 0 233.2C0 196.5 29.7 166.7 66.5 166.7H233.2Z" fill="black"/>
<path fill-rule="evenodd" clip-rule="evenodd" d="M499.6 233.2C499.6 196.4 529.3 166.7 566.1 166.7C602.9 166.7 632.6 196.4 632.6 233.2C632.6 270 602.9 299.7 566.1 299.7H499.6V233.2ZM466.4 233.2C466.4 270 436.7 299.7 399.9 299.7C363.1 299.7 333.4 270 333.4 233.2V66.5C333.4 29.7 363.1 0 399.9 0C436.7 0 466.4 29.7 466.4 66.5V233.2Z" fill="black"/>
<path fill-rule="evenodd" clip-rule="evenodd" d="M399.9 499.6C436.7 499.6 466.4 529.3 466.4 566.1C466.4 602.9 436.7 632.6 399.9 632.6C363.1 632.6 333.4 602.9 333.4 566.1V499.6H399.9ZM399.9 466.4C363.1 466.4 333.4 436.7 333.4 399.9C333.4 363.1 363.1 333.4 399.9 333.4H566.6C603.4 333.4 633.1 363.1 633.1 399.9C633.1 436.7 603.4 466.4 566.6 466.4H399.9Z" fill="black"/>
</g>
<defs>
<clipPath id="clip0_33_139">
<rect width="2500" height="632.6" fill="white"/>
</clipPath>
</defs>
</svg>
